<svg width="106" height="38" viewBox="0 0 106 38" fill="none" xmlns="http://www.w3.org/2000/svg">
<path d="M44.0377 30.3289C44.0217 29.8169 44.0137 29.2969 44.0137 28.7689C44.0137 28.2569 44.0137 27.7449 44.0137 27.2329C44.0137 24.8809 44.0617 22.6009 44.1577 20.3929C44.2537 18.1689 44.3657 16.0489 44.4937 14.0329C43.8537 14.1929 43.3177 14.3449 42.8857 14.4889L41.9497 10.6489C42.7337 10.4089 43.5577 10.2009 44.4217 10.0249C45.3017 9.83286 46.1577 9.68086 46.9897 9.56885C47.8377 9.44085 48.6137 9.35285 49.3177 9.30486C50.0377 9.24086 50.6297 9.20886 51.0937 9.20886C51.5897 9.20886 52.1977 9.24886 52.9177 9.32886C53.6537 9.40885 54.4057 9.57685 55.1737 9.83285C55.9577 10.0729 56.6857 10.4409 57.3577 10.9369C58.0297 11.4329 58.5737 12.1049 58.9897 12.9529C59.4217 13.7849 59.6377 14.8329 59.6377 16.0969C59.6377 17.4089 59.3497 18.5049 58.7737 19.3849C58.1977 20.2489 57.4377 20.9449 56.4937 21.4729C55.5497 21.9849 54.5097 22.3529 53.3737 22.5769C52.2377 22.8009 51.1177 22.9129 50.0137 22.9129C49.3097 22.9129 48.6377 22.8809 47.9977 22.8169C47.9817 23.5849 47.9737 24.3449 47.9737 25.0969C47.9737 26.1209 47.9817 27.0729 47.9977 27.9529C48.0137 28.8169 48.0457 29.5769 48.0937 30.2329L44.0377 30.3289ZM50.9737 13.1449C50.5577 13.1449 50.1257 13.1609 49.6777 13.1929C49.2457 13.2249 48.8137 13.2649 48.3817 13.3129C48.3017 14.1609 48.2377 15.0809 48.1897 16.0729C48.1417 17.0649 48.1017 18.0809 48.0697 19.1209C48.6617 19.1689 49.2777 19.1929 49.9177 19.1929C53.7577 19.1929 55.6777 18.0569 55.6777 15.7849C55.6777 14.8889 55.2937 14.2249 54.5257 13.7929C53.7577 13.3609 52.5737 13.1449 50.9737 13.1449ZM61.3961 18.3849C61.3961 18.2889 61.3908 18.1929 61.3801 18.0969C61.3801 17.9902 61.3801 17.8729 61.3801 17.7449C61.3801 17.4035 61.3908 17.0409 61.4121 16.6569C61.4334 16.2729 61.4548 15.9475 61.4761 15.6809L64.3241 15.7289C64.2921 16.0915 64.2548 16.5022 64.2121 16.9609C64.1801 17.4195 64.1588 17.8942 64.1481 18.3849H61.3961ZM61.3321 29.8409C61.3001 29.1795 61.2788 28.4755 61.2681 27.7289C61.2574 26.9715 61.2521 26.2142 61.2521 25.4569C61.2521 24.4649 61.2628 23.4995 61.2841 22.5609C61.3054 21.6222 61.3321 20.7689 61.3641 20.0009L64.1161 19.9849C64.0734 20.4755 64.0468 21.0835 64.0361 21.8089C64.0254 22.5235 64.0201 23.2755 64.0201 24.0649C64.0201 24.8435 64.0254 25.6115 64.0361 26.3689C64.0468 27.1262 64.0574 27.8142 64.0681 28.4329C64.0894 29.0409 64.1054 29.5102 64.1161 29.8409H61.3321ZM67.5348 30.0809L65.5188 28.3369C66.0308 27.7395 66.5802 27.1369 67.1668 26.5289C67.7535 25.9102 68.3562 25.2969 68.9748 24.6889C68.2282 24.0382 67.5295 23.4569 66.8788 22.9449C66.2388 22.4222 65.7428 22.0542 65.3908 21.8409L66.9908 19.7289C67.5668 20.1449 68.1908 20.6195 68.8628 21.1529C69.5348 21.6862 70.2122 22.2515 70.8948 22.8489C71.5242 22.2729 72.1428 21.7129 72.7508 21.1689C73.3588 20.6142 73.9402 20.0915 74.4948 19.6009L76.3508 21.5209C76.0095 21.7662 75.5242 22.1715 74.8948 22.7369C74.2655 23.2915 73.5828 23.9102 72.8468 24.5929C73.5508 25.2329 74.2122 25.8675 74.8308 26.4969C75.4602 27.1155 76.0148 27.6915 76.4948 28.2249L74.5428 30.0009C74.3508 29.7662 74.0735 29.4622 73.7108 29.0889C73.3482 28.7155 72.9268 28.2995 72.4468 27.8409C71.9775 27.3822 71.4762 26.9129 70.9428 26.4329C70.4308 26.9342 69.9455 27.4195 69.4868 27.8889C69.0388 28.3582 68.6442 28.7795 68.3028 29.1529C67.9615 29.5369 67.7055 29.8462 67.5348 30.0809ZM82.5566 29.9849C81.9166 29.9849 81.4099 29.8462 81.0366 29.5689C80.6633 29.3022 80.3913 28.9289 80.2206 28.4489C80.0499 27.9689 79.9379 27.4195 79.8846 26.8009C79.8419 26.1822 79.8206 25.5315 79.8206 24.8489C79.8206 24.1449 79.8473 23.4142 79.9006 22.6569C79.1859 22.7529 78.4979 22.8755 77.8366 23.0249L77.3406 20.5129C78.2259 20.2782 79.1699 20.1075 80.1726 20.0009C80.2473 19.4569 80.3273 18.8862 80.4126 18.2889C80.4979 17.6809 80.5939 17.0409 80.7006 16.3689L83.4526 16.6089C83.3246 17.1635 83.2126 17.7182 83.1166 18.2729C83.0206 18.8169 82.9353 19.3449 82.8606 19.8569C83.4579 19.8569 84.0179 19.8729 84.5406 19.9049C85.0739 19.9262 85.5646 19.9689 86.0126 20.0329L85.6926 22.5449C85.3193 22.5022 84.9299 22.4755 84.5246 22.4649C84.1299 22.4435 83.7299 22.4329 83.3246 22.4329C83.0793 22.4329 82.8339 22.4382 82.5886 22.4489C82.5246 23.2275 82.4819 23.8942 82.4606 24.4489C82.4499 25.0035 82.4446 25.3982 82.4446 25.6329C82.4446 26.2195 82.4766 26.6409 82.5406 26.8969C82.6153 27.1529 82.7326 27.2809 82.8926 27.2809C83.0739 27.2809 83.2766 27.2222 83.5006 27.1049C83.7246 26.9769 83.9433 26.8062 84.1566 26.5929C84.3806 26.3795 84.5673 26.1502 84.7166 25.9049L85.9486 28.4809C84.8926 29.4835 83.7619 29.9849 82.5566 29.9849ZM91.9792 30.0009C90.9552 30.0009 90.0539 29.7982 89.2752 29.3929C88.5072 28.9982 87.9045 28.4435 87.4672 27.7289C87.0405 27.0142 86.8272 26.1875 86.8272 25.2489C86.8272 24.6835 86.9232 24.0915 87.1152 23.4729C87.3072 22.8435 87.6165 22.2569 88.0432 21.7129C88.4699 21.1689 89.0299 20.7262 89.7232 20.3849C90.4272 20.0435 91.2805 19.8729 92.2832 19.8729C93.0085 19.8729 93.6165 19.9529 94.1072 20.1129C94.6085 20.2729 95.0139 20.4809 95.3232 20.7369C95.6432 20.9929 95.8832 21.2649 96.0432 21.5529C96.2139 21.8409 96.3259 22.1182 96.3792 22.3849C96.4432 22.6409 96.4752 22.8542 96.4752 23.0249C96.4752 24.0595 96.0379 24.8595 95.1632 25.4249C94.2992 25.9795 93.0725 26.2569 91.4832 26.2569C91.1205 26.2569 90.7739 26.2409 90.4432 26.2089C90.1232 26.1769 89.8245 26.1395 89.5472 26.0969C89.7499 26.6302 90.0859 27.0249 90.5552 27.2809C91.0245 27.5262 91.5099 27.6489 92.0112 27.6489C92.7365 27.6489 93.3765 27.5209 93.9312 27.2649C94.4859 26.9982 95.0085 26.5929 95.4992 26.0489L96.9232 28.0969C96.5819 28.3742 96.1979 28.6622 95.7712 28.9609C95.3552 29.2595 94.8432 29.5049 94.2352 29.6969C93.6272 29.8995 92.8752 30.0009 91.9792 30.0009ZM92.3312 22.2729C91.7019 22.2729 91.1472 22.4329 90.6672 22.7529C90.1872 23.0729 89.8352 23.4942 89.6112 24.0169C89.8779 24.0595 90.1392 24.0969 90.3952 24.1289C90.6619 24.1502 90.9232 24.1609 91.1792 24.1609C91.4139 24.1609 91.6805 24.1395 91.9792 24.0969C92.2885 24.0542 92.5872 23.9902 92.8752 23.9049C93.1739 23.8195 93.4192 23.7129 93.6112 23.5849C93.8032 23.4462 93.8992 23.2862 93.8992 23.1049C93.8992 23.0195 93.8565 22.9129 93.7712 22.7849C93.6859 22.6569 93.5312 22.5395 93.3072 22.4329C93.0832 22.3262 92.7579 22.2729 92.3312 22.2729ZM98.0988 29.9689C98.1415 29.0835 98.1735 28.1982 98.1948 27.3129C98.2162 26.4275 98.2268 25.5529 98.2268 24.6889C98.2162 23.8995 98.2002 23.1209 98.1788 22.3529C98.1682 21.5742 98.1415 20.8222 98.0988 20.0969L100.787 20.0169C100.798 20.4115 100.814 20.8169 100.835 21.2329C101.176 20.8062 101.571 20.4649 102.019 20.2089C102.478 19.9422 103 19.8089 103.587 19.8089C103.811 19.8089 104.099 19.8409 104.451 19.9049C104.803 19.9689 105.16 20.0915 105.523 20.2729L105.219 22.9769C104.952 22.8169 104.664 22.7049 104.355 22.6409C104.056 22.5662 103.806 22.5289 103.603 22.5289C102.92 22.5289 102.339 22.8382 101.859 23.4569C101.39 24.0649 101.07 24.9129 100.899 26.0009C100.899 26.7475 100.888 27.4622 100.867 28.1449C100.856 28.8169 100.83 29.4249 100.787 29.9689H98.0988Z" fill="black"/>
<path d="M7.92018 0.250076C7.39846 0.263123 6.9025 0.479583 6.53818 0.853251C6.17385 1.22692 5.97002 1.72819 5.97018 2.25008V3.19008H2.97018C2.28373 3.1574 1.61226 3.39783 1.10256 3.85881C0.592866 4.31978 0.286407 4.9638 0.250179 5.65008V34.7501C0.276248 35.4362 0.572683 36.0842 1.07478 36.5526C1.57688 37.021 2.24388 37.2717 2.93018 37.2501H22.7502C23.0933 37.2662 23.4362 37.2141 23.7591 37.0969C24.082 36.9797 24.3785 36.7997 24.6314 36.5672C24.8843 36.3347 25.0887 36.0545 25.2326 35.7426C25.3766 35.4307 25.4573 35.0934 25.4702 34.7501V32.8001H35.3002C35.5599 32.8081 35.8187 32.7639 36.061 32.67C36.3034 32.5761 36.5244 32.4345 36.7109 32.2535C36.8975 32.0726 37.0458 31.856 37.147 31.6166C37.2482 31.3772 37.3003 31.12 37.3002 30.8601V9.54008C37.2871 9.01836 37.0707 8.5224 36.697 8.15808C36.3233 7.79375 35.8221 7.58991 35.3002 7.59008H25.4702V5.65008C25.4586 5.30594 25.3789 4.96753 25.2355 4.65448C25.0921 4.34144 24.8879 4.05999 24.6349 3.82648C24.3818 3.59297 24.0849 3.41205 23.7614 3.29422C23.4378 3.17638 23.0941 3.12399 22.7502 3.14008H19.6602V2.20008C19.648 1.69357 19.4441 1.21055 19.0895 0.848593C18.735 0.486639 18.2563 0.27273 17.7502 0.250076H7.92018ZM13.8502 10.9201H16.8502V13.9201H13.8502V10.9201ZM19.6702 10.9201H22.6702V13.9201H19.6702V10.9201ZM25.5302 10.9201H28.5302V13.9201H25.5302V10.9201ZM31.3602 10.9201H34.3602V13.9201H31.3602V10.9201ZM13.8502 26.5001H16.8502V29.5001H13.8502V26.5001ZM19.6702 26.5001H22.6702V29.5001H19.6702V26.5001ZM25.5302 26.5001H28.5302V29.5001H25.5302V26.5001ZM31.3602 26.5001H34.3602V29.5001H31.3602V26.5001Z" fill="url(#paint0_linear_1_98)" stroke="black" stroke-width="0.5"/>
<path d="M25.4702 7.59007H12.9002C12.387 7.60275 11.8983 7.81226 11.5354 8.17525C11.1724 8.53823 10.9629 9.02689 10.9502 9.54007L11.0002 30.8601C11.0154 31.3715 11.226 31.8577 11.5887 32.2185C11.9514 32.5794 12.4387 32.7875 12.9502 32.8001H25.4702" fill="url(#paint1_linear_1_98)"/>
<path d="M25.4702 7.59007H12.9002C12.387 7.60275 11.8983 7.81226 11.5354 8.17525C11.1724 8.53823 10.9629 9.02689 10.9502 9.54007L11.0002 30.8601C11.0154 31.3715 11.226 31.8577 11.5887 32.2185C11.9514 32.5794 12.4387 32.7875 12.9502 32.8001H25.4702" stroke="black" stroke-width="0.5"/>
<defs>
<linearGradient id="paint0_linear_1_98" x1="18.7752" y1="0.250076" x2="18.7752" y2="37.2529" gradientUnits="userSpaceOnUse">
<stop stop-color="#1976D2"/>
<stop offset="1" stop-color="#9C27B0"/>
</linearGradient>
<linearGradient id="paint1_linear_1_98" x1="18.2102" y1="7.59007" x2="18.2102" y2="32.8001" gradientUnits="userSpaceOnUse">
<stop stop-color="#1976D2"/>
<stop offset="1" stop-color="#9C27B0"/>
</linearGradient>
</defs>
</svg>
