<svg width="38" height="38" viewBox="0 0 38 38" fill="none" xmlns="http://www.w3.org/2000/svg">
<path d="M7.92018 0.250076C7.39846 0.263123 6.90251 0.479583 6.53818 0.853251C6.17386 1.22692 5.97002 1.72819 5.97018 2.25008V3.19008H2.97018C2.28373 3.1574 1.61226 3.39783 1.10256 3.85881C0.59287 4.31978 0.286411 4.9638 0.250183 5.65008V34.7501C0.276252 35.4362 0.572687 36.0842 1.07479 36.5526C1.57689 37.021 2.24388 37.2717 2.93018 37.2501H22.7502C23.0933 37.2662 23.4362 37.2141 23.7591 37.0969C24.082 36.9797 24.3785 36.7997 24.6314 36.5672C24.8843 36.3347 25.0887 36.0545 25.2327 35.7426C25.3766 35.4307 25.4573 35.0934 25.4702 34.7501V32.8001H35.3002C35.56 32.8081 35.8187 32.7639 36.061 32.67C36.3034 32.5761 36.5244 32.4345 36.7109 32.2535C36.8975 32.0726 37.0458 31.856 37.147 31.6166C37.2482 31.3772 37.3003 31.12 37.3002 30.8601V9.54008C37.2871 9.01836 37.0707 8.5224 36.697 8.15808C36.3233 7.79375 35.8221 7.58991 35.3002 7.59008H25.4702V5.65008C25.4586 5.30594 25.3789 4.96753 25.2355 4.65448C25.0921 4.34144 24.8879 4.05999 24.6349 3.82648C24.3818 3.59297 24.0849 3.41205 23.7614 3.29422C23.4379 3.17638 23.0941 3.12399 22.7502 3.14008H19.6602V2.20008C19.648 1.69357 19.4441 1.21055 19.0896 0.848593C18.735 0.486639 18.2563 0.27273 17.7502 0.250076H7.92018ZM13.8502 10.9201H16.8502V13.9201H13.8502V10.9201ZM19.6702 10.9201H22.6702V13.9201H19.6702V10.9201ZM25.5302 10.9201H28.5302V13.9201H25.5302V10.9201ZM31.3602 10.9201H34.3602V13.9201H31.3602V10.9201ZM13.8502 26.5001H16.8502V29.5001H13.8502V26.5001ZM19.6702 26.5001H22.6702V29.5001H19.6702V26.5001ZM25.5302 26.5001H28.5302V29.5001H25.5302V26.5001ZM31.3602 26.5001H34.3602V29.5001H31.3602V26.5001Z" fill="url(#paint0_linear_1_90)" stroke="black" stroke-width="0.5"/>
<path d="M25.4702 7.59007H12.9002C12.387 7.60275 11.8983 7.81226 11.5354 8.17525C11.1724 8.53823 10.9629 9.02689 10.9502 9.54007L11.0002 30.8601C11.0154 31.3715 11.226 31.8577 11.5887 32.2185C11.9514 32.5794 12.4387 32.7875 12.9502 32.8001H25.4702" fill="url(#paint1_linear_1_90)"/>
<path d="M25.4702 7.59007H12.9002C12.387 7.60275 11.8983 7.81226 11.5354 8.17525C11.1724 8.53823 10.9629 9.02689 10.9502 9.54007L11.0002 30.8601C11.0154 31.3715 11.226 31.8577 11.5887 32.2185C11.9514 32.5794 12.4387 32.7875 12.9502 32.8001H25.4702" stroke="black" stroke-width="0.5"/>
<defs>
<linearGradient id="paint0_linear_1_90" x1="18.7752" y1="0.250076" x2="18.7752" y2="37.2529" gradientUnits="userSpaceOnUse">
<stop stop-color="#1976D2"/>
<stop offset="1" stop-color="#9C27B0"/>
</linearGradient>
<linearGradient id="paint1_linear_1_90" x1="18.2102" y1="7.59007" x2="18.2102" y2="32.8001" gradientUnits="userSpaceOnUse">
<stop stop-color="#1976D2"/>
<stop offset="1" stop-color="#9C27B0"/>
</linearGradient>
</defs>
</svg>
